<svg xmlns="http://www.w3.org/2000/svg" width="1000" height="650" viewBox="0 0 1000 650" role="img"><title>1A  ONE WAY | 2 wires between the homes</title><rect width="1000" height="650" fill="#ffffff"/><text x="30" y="42" font-family="DejaVu Sans,sans-serif" font-size="27" fill="#0f172a">1A  ONE WAY | 2 wires between the homes</text><text x="45" y="83" font-family="DejaVu Sans,sans-serif" font-size="21" fill="#2563eb">YOUR HOME (A)</text><text x="720" y="83" font-family="DejaVu Sans,sans-serif" font-size="21" fill="#c26909">FRIEND’S HOME (B)</text><g><rect x="65" y="185" width="55" height="70" rx="12" fill="#fff7ed" stroke="#2563eb" stroke-width="2"/><path d="M92 185 L92 130" fill="none" stroke="#2563eb" stroke-width="3"/><path d="M92 130 L260 130" fill="none" stroke="#2563eb" stroke-width="3"/><path d="M260 130 L330 130" fill="none" stroke="#2563eb" stroke-width="5"/><circle cx="260" cy="130" r="5" fill="white" stroke="#2563eb" stroke-width="3"/><circle cx="330" cy="130" r="5" fill="white" stroke="#2563eb" stroke-width="3"/><path d="M330 130 L790 130" fill="none" stroke="#2563eb" stroke-width="3"/><path d="M790 130 L790 197" fill="none" stroke="#2563eb" stroke-width="3"/><circle cx="790" cy="220" r="23" fill="#fef08a" stroke="#2563eb" stroke-width="3"/><path d="M777 207 L803 233" fill="none" stroke="#2563eb" stroke-width="3"/><path d="M777 233 L803 207" fill="none" stroke="#2563eb" stroke-width="3"/><path d="M790 243 L790 290" fill="none" stroke="#2563eb" stroke-width="3"/><path d="M790 290 L92 290" fill="none" stroke="#2563eb" stroke-width="3"/><path d="M92 290 L92 255" fill="none" stroke="#2563eb" stroke-width="3"/><path d="M470 130 L540 130" fill="none" stroke="#2563eb" stroke-width="3"/><path d="M540 130 L530.3465918192059 135.27368092464624" fill="none" stroke="#2563eb" stroke-width="3"/><path d="M540 130 L530.3465918192059 124.72631907535377" fill="none" stroke="#2563eb" stroke-width="3"/><path d="M540 290 L470 290" fill="none" stroke="#2563eb" stroke-width="3"/><path d="M470 290 L479.6534081807941 284.7263190753538" fill="none" stroke="#2563eb" stroke-width="3"/><path d="M470 290 L479.6534081807941 295.2736809246462" fill="none" stroke="#2563eb" stroke-width="3"/></g><text x="85" y="210" font-family="DejaVu Sans,sans-serif" font-size="22" fill="#2563eb">+</text><text x="85" y="242" font-family="DejaVu Sans,sans-serif" font-size="22" fill="#2563eb">−</text><text x="255" y="110" font-family="DejaVu Sans,sans-serif" font-size="18" fill="#2563eb">Key A</text><text x="825" y="225" font-family="DejaVu Sans,sans-serif" font-size="17" fill="#2563eb">Bulb B</text><text x="425" y="115" font-family="DejaVu Sans,sans-serif" font-size="17" fill="#2563eb">outgoing wire</text><text x="425" y="317" font-family="DejaVu Sans,sans-serif" font-size="17" fill="#2563eb">return wire</text><g><rect x="65" y="460" width="55" height="70" rx="12" fill="#fff7ed" stroke="#64748b" stroke-width="2"/><path d="M92 460 L92 405" fill="none" stroke="#64748b" stroke-width="3"/><path d="M92 405 L260 405" fill="none" stroke="#64748b" stroke-width="3"/><path d="M260 405 L330 375" fill="none" stroke="#64748b" stroke-width="5"/><circle cx="260" cy="405" r="5" fill="white" stroke="#64748b" stroke-width="3"/><circle cx="330" cy="405" r="5" fill="white" stroke="#64748b" stroke-width="3"/><path d="M330 405 L790 405" fill="none" stroke="#64748b" stroke-width="3"/><path d="M790 405 L790 472" fill="none" stroke="#64748b" stroke-width="3"/><circle cx="790" cy="495" r="23" fill="#f1f5f9" stroke="#64748b" stroke-width="3"/><path d="M777 482 L803 508" fill="none" stroke="#64748b" stroke-width="3"/><path d="M777 508 L803 482" fill="none" stroke="#64748b" stroke-width="3"/><path d="M790 518 L790 565" fill="none" stroke="#64748b" stroke-width="3"/><path d="M790 565 L92 565" fill="none" stroke="#64748b" stroke-width="3"/><path d="M92 565 L92 530" fill="none" stroke="#64748b" stroke-width="3"/></g><text x="85" y="485" font-family="DejaVu Sans,sans-serif" font-size="22" fill="#64748b">+</text><text x="85" y="517" font-family="DejaVu Sans,sans-serif" font-size="22" fill="#64748b">−</text><text x="255" y="385" font-family="DejaVu Sans,sans-serif" font-size="18" fill="#64748b">Key A</text><text x="825" y="500" font-family="DejaVu Sans,sans-serif" font-size="17" fill="#64748b">Bulb B</text><text x="425" y="390" font-family="DejaVu Sans,sans-serif" font-size="17" fill="#64748b">outgoing wire</text><text x="425" y="592" font-family="DejaVu Sans,sans-serif" font-size="17" fill="#64748b">return wire</text><text x="35" y="350" font-family="DejaVu Sans,sans-serif" font-size="20" fill="#2563eb">KEY CLOSED → current flows → the distant bulb lights.</text><text x="35" y="630" font-family="DejaVu Sans,sans-serif" font-size="20" fill="#64748b">KEY OPEN → the loop breaks → the distant bulb goes dark.</text></svg>