<svg xmlns="http://www.w3.org/2000/svg" width="1000" height="620" viewBox="0 0 1000 620" role="img"><title>2  COMMON WIRE | 3 long wires, two-way</title><rect width="1000" height="620" fill="#ffffff"/><text x="30" y="42" font-family="DejaVu Sans,sans-serif" font-size="27" fill="#0f172a">2  COMMON WIRE | 3 long wires, two-way</text><text x="45" y="90" font-family="DejaVu Sans,sans-serif" font-size="22" fill="#2563eb">YOUR HOME (A)</text><text x="710" y="90" font-family="DejaVu Sans,sans-serif" font-size="22" fill="#c26909">FRIEND’S HOME (B)</text><rect x="103" y="190" width="54" height="70" rx="12" fill="#fff7ed" stroke="#2563eb" stroke-width="2"/><text x="123" y="216" font-family="DejaVu Sans,sans-serif" font-size="22" fill="#2563eb">+</text><text x="123" y="250" font-family="DejaVu Sans,sans-serif" font-size="22" fill="#2563eb">−</text><text x="35" y="230" font-family="DejaVu Sans,sans-serif" font-size="20" fill="#2563eb">A</text><path d="M130 190 L130 150" fill="none" stroke="#2563eb" stroke-width="3"/><path d="M130 150 L280 150" fill="none" stroke="#2563eb" stroke-width="3"/><path d="M280 150 L350 150" fill="none" stroke="#2563eb" stroke-width="5"/><circle cx="280" cy="150" r="5" fill="white" stroke="#2563eb" stroke-width="3"/><circle cx="350" cy="150" r="5" fill="white" stroke="#2563eb" stroke-width="3"/><path d="M350 150 L757 150" fill="none" stroke="#2563eb" stroke-width="3"/><circle cx="780" cy="150" r="23" fill="#fef08a" stroke="#2563eb" stroke-width="3"/><path d="M767 137 L793 163" fill="none" stroke="#2563eb" stroke-width="3"/><path d="M767 163 L793 137" fill="none" stroke="#2563eb" stroke-width="3"/><path d="M803 150 L870 150" fill="none" stroke="#2563eb" stroke-width="3"/><path d="M870 150 L870 300" fill="none" stroke="#2563eb" stroke-width="3"/><path d="M130 260 L130 300" fill="none" stroke="#2563eb" stroke-width="3"/><text x="275" y="130" font-family="DejaVu Sans,sans-serif" font-size="18" fill="#2563eb">Key A</text><text x="745" y="125" font-family="DejaVu Sans,sans-serif" font-size="18" fill="#2563eb">Bulb B</text><text x="445" y="137" font-family="DejaVu Sans,sans-serif" font-size="18" fill="#2563eb">Wire 1: A → B</text><rect x="843" y="330" width="54" height="70" rx="12" fill="#fff7ed" stroke="#c26909" stroke-width="2"/><text x="863" y="352" font-family="DejaVu Sans,sans-serif" font-size="22" fill="#c26909">−</text><text x="863" y="387" font-family="DejaVu Sans,sans-serif" font-size="22" fill="#c26909">+</text><text x="910" y="372" font-family="DejaVu Sans,sans-serif" font-size="20" fill="#c26909">B</text><path d="M870 300 L870 330" fill="none" stroke="#c26909" stroke-width="3"/><path d="M870 400 L870 450" fill="none" stroke="#c26909" stroke-width="3"/><path d="M870 450 L720 450" fill="none" stroke="#c26909" stroke-width="3"/><path d="M650 450 L720 420" fill="none" stroke="#c26909" stroke-width="5"/><circle cx="650" cy="450" r="5" fill="white" stroke="#c26909" stroke-width="3"/><circle cx="720" cy="450" r="5" fill="white" stroke="#c26909" stroke-width="3"/><path d="M650 450 L253 450" fill="none" stroke="#c26909" stroke-width="3"/><circle cx="230" cy="450" r="23" fill="#f1f5f9" stroke="#c26909" stroke-width="3"/><path d="M217 437 L243 463" fill="none" stroke="#c26909" stroke-width="3"/><path d="M217 463 L243 437" fill="none" stroke="#c26909" stroke-width="3"/><path d="M207 450 L130 450" fill="none" stroke="#c26909" stroke-width="3"/><path d="M130 450 L130 300" fill="none" stroke="#c26909" stroke-width="3"/><text x="645" y="488" font-family="DejaVu Sans,sans-serif" font-size="18" fill="#c26909">Key B: OPEN</text><text x="175" y="493" font-family="DejaVu Sans,sans-serif" font-size="18" fill="#c26909">Bulb A: OFF</text><text x="420" y="481" font-family="DejaVu Sans,sans-serif" font-size="18" fill="#c26909">Wire 2: B → A</text><path d="M130 300 L870 300" fill="none" stroke="#15803d" stroke-width="5"/><text x="355" y="285" font-family="DejaVu Sans,sans-serif" font-size="20" fill="#15803d">Wire 3: shared COMMON</text><path d="M560 300 L480 300" fill="none" stroke="#15803d" stroke-width="3"/><path d="M480 300 L489.6534081807941 294.7263190753538" fill="none" stroke="#15803d" stroke-width="3"/><path d="M480 300 L489.6534081807941 305.2736809246462" fill="none" stroke="#15803d" stroke-width="3"/><circle cx="130" cy="300" r="6" fill="#15803d"/><circle cx="870" cy="300" r="6" fill="#15803d"/><text x="35" y="550" font-family="DejaVu Sans,sans-serif" font-size="21" fill="#2563eb">Shown: Key A closed, Key B open. Only Bulb B lights.</text><text x="35" y="590" font-family="DejaVu Sans,sans-serif" font-size="18" fill="#15803d">Green joins both battery negatives and the return ends of both bulbs.</text></svg>